<mxfile host="Electron" agent="Mozilla/5.0 (Windows NT 10.0; Win64; x64) AppleWebKit/537.36 (KHTML, like Gecko) draw.io/24.7.17 Chrome/128.0.6613.36 Electron/32.0.1 Safari/537.36" version="24.7.17">
  <diagram name="Page-1" id="L1nu5HghFfAocoa620KP">
    <mxGraphModel dx="2376" dy="2614" grid="0" gridSize="10" guides="1" tooltips="0" connect="1" arrows="1" fold="1" page="1" pageScale="1" pageWidth="850" pageHeight="1100" math="0" shadow="0">
      <root>
        <mxCell id="0" />
        <mxCell id="1" parent="0" />
        <mxCell id="iJcZFBP5WNkSlqs788NF-35" value="MenuCuaHang" style="swimlane;fontStyle=1;align=center;verticalAlign=top;childLayout=stackLayout;horizontal=1;startSize=26;horizontalStack=0;resizeParent=1;resizeParentMax=0;resizeLast=0;collapsible=1;marginBottom=0;whiteSpace=wrap;html=1;" parent="1" vertex="1">
          <mxGeometry x="290" y="-1154" width="160" height="202" as="geometry" />
        </mxCell>
        <mxCell id="iJcZFBP5WNkSlqs788NF-36" value="+ QLXeMay: ql1&lt;br&gt;+ QLHangSX: ql2&lt;br&gt;&lt;div&gt;+ QLNhanSu: ql3&lt;/div&gt;&lt;div&gt;+ QLKhachHang: ql4&lt;/div&gt;&lt;div&gt;+ QLHoaDon: ql5&lt;/div&gt;" style="text;strokeColor=none;fillColor=none;align=left;verticalAlign=top;spacingLeft=4;spacingRight=4;overflow=hidden;rotatable=0;points=[[0,0.5],[1,0.5]];portConstraint=eastwest;whiteSpace=wrap;html=1;" parent="iJcZFBP5WNkSlqs788NF-35" vertex="1">
          <mxGeometry y="26" width="160" height="84" as="geometry" />
        </mxCell>
        <mxCell id="iJcZFBP5WNkSlqs788NF-37" value="" style="line;strokeWidth=1;fillColor=none;align=left;verticalAlign=middle;spacingTop=-1;spacingLeft=3;spacingRight=3;rotatable=0;labelPosition=right;points=[];portConstraint=eastwest;strokeColor=inherit;" parent="iJcZFBP5WNkSlqs788NF-35" vertex="1">
          <mxGeometry y="110" width="160" height="10" as="geometry" />
        </mxCell>
        <mxCell id="iJcZFBP5WNkSlqs788NF-38" value="+ ql1.menu()&lt;div&gt;+ ql2.menu()&lt;br&gt;&lt;/div&gt;&lt;div&gt;+ ql3.menu()&lt;br&gt;&lt;/div&gt;&lt;div&gt;+ ql4.menu()&lt;br&gt;&lt;/div&gt;&lt;div&gt;+ ql5.menu()&lt;br&gt;&lt;/div&gt;" style="text;strokeColor=none;fillColor=none;align=left;verticalAlign=top;spacingLeft=4;spacingRight=4;overflow=hidden;rotatable=0;points=[[0,0.5],[1,0.5]];portConstraint=eastwest;whiteSpace=wrap;html=1;" parent="iJcZFBP5WNkSlqs788NF-35" vertex="1">
          <mxGeometry y="120" width="160" height="82" as="geometry" />
        </mxCell>
        <mxCell id="iJcZFBP5WNkSlqs788NF-43" value="QLXeMay" style="swimlane;fontStyle=1;align=center;verticalAlign=top;childLayout=stackLayout;horizontal=1;startSize=26;horizontalStack=0;resizeParent=1;resizeParentMax=0;resizeLast=0;collapsible=1;marginBottom=0;whiteSpace=wrap;html=1;" parent="1" vertex="1">
          <mxGeometry x="-249" y="-878" width="160" height="100" as="geometry" />
        </mxCell>
        <mxCell id="iJcZFBP5WNkSlqs788NF-44" value="- dssp: DSXeMay" style="text;strokeColor=none;fillColor=none;align=left;verticalAlign=top;spacingLeft=4;spacingRight=4;overflow=hidden;rotatable=0;points=[[0,0.5],[1,0.5]];portConstraint=eastwest;whiteSpace=wrap;html=1;" parent="iJcZFBP5WNkSlqs788NF-43" vertex="1">
          <mxGeometry y="26" width="160" height="26" as="geometry" />
        </mxCell>
        <mxCell id="iJcZFBP5WNkSlqs788NF-45" value="" style="line;strokeWidth=1;fillColor=none;align=left;verticalAlign=middle;spacingTop=-1;spacingLeft=3;spacingRight=3;rotatable=0;labelPosition=right;points=[];portConstraint=eastwest;strokeColor=inherit;" parent="iJcZFBP5WNkSlqs788NF-43" vertex="1">
          <mxGeometry y="52" width="160" height="8" as="geometry" />
        </mxCell>
        <mxCell id="iJcZFBP5WNkSlqs788NF-46" value="+ QLXeMay()&lt;br&gt;+ menu()" style="text;strokeColor=none;fillColor=none;align=left;verticalAlign=top;spacingLeft=4;spacingRight=4;overflow=hidden;rotatable=0;points=[[0,0.5],[1,0.5]];portConstraint=eastwest;whiteSpace=wrap;html=1;" parent="iJcZFBP5WNkSlqs788NF-43" vertex="1">
          <mxGeometry y="60" width="160" height="40" as="geometry" />
        </mxCell>
        <mxCell id="iJcZFBP5WNkSlqs788NF-47" value="QLNhanSu" style="swimlane;fontStyle=1;align=center;verticalAlign=top;childLayout=stackLayout;horizontal=1;startSize=26;horizontalStack=0;resizeParent=1;resizeParentMax=0;resizeLast=0;collapsible=1;marginBottom=0;whiteSpace=wrap;html=1;" parent="1" vertex="1">
          <mxGeometry x="828" y="-878" width="160" height="100" as="geometry" />
        </mxCell>
        <mxCell id="iJcZFBP5WNkSlqs788NF-48" value="- dsns: DSNhanSu" style="text;strokeColor=none;fillColor=none;align=left;verticalAlign=top;spacingLeft=4;spacingRight=4;overflow=hidden;rotatable=0;points=[[0,0.5],[1,0.5]];portConstraint=eastwest;whiteSpace=wrap;html=1;" parent="iJcZFBP5WNkSlqs788NF-47" vertex="1">
          <mxGeometry y="26" width="160" height="26" as="geometry" />
        </mxCell>
        <mxCell id="iJcZFBP5WNkSlqs788NF-49" value="" style="line;strokeWidth=1;fillColor=none;align=left;verticalAlign=middle;spacingTop=-1;spacingLeft=3;spacingRight=3;rotatable=0;labelPosition=right;points=[];portConstraint=eastwest;strokeColor=inherit;" parent="iJcZFBP5WNkSlqs788NF-47" vertex="1">
          <mxGeometry y="52" width="160" height="8" as="geometry" />
        </mxCell>
        <mxCell id="iJcZFBP5WNkSlqs788NF-50" value="+ QLNhanSu()&lt;br&gt;+ menu()" style="text;strokeColor=none;fillColor=none;align=left;verticalAlign=top;spacingLeft=4;spacingRight=4;overflow=hidden;rotatable=0;points=[[0,0.5],[1,0.5]];portConstraint=eastwest;whiteSpace=wrap;html=1;" parent="iJcZFBP5WNkSlqs788NF-47" vertex="1">
          <mxGeometry y="60" width="160" height="40" as="geometry" />
        </mxCell>
        <mxCell id="iJcZFBP5WNkSlqs788NF-51" value="QLHangSX" style="swimlane;fontStyle=1;align=center;verticalAlign=top;childLayout=stackLayout;horizontal=1;startSize=26;horizontalStack=0;resizeParent=1;resizeParentMax=0;resizeLast=0;collapsible=1;marginBottom=0;whiteSpace=wrap;html=1;" parent="1" vertex="1">
          <mxGeometry x="570" y="-845" width="160" height="100" as="geometry" />
        </mxCell>
        <mxCell id="iJcZFBP5WNkSlqs788NF-52" value="- dshd: DSHangSX" style="text;strokeColor=none;fillColor=none;align=left;verticalAlign=top;spacingLeft=4;spacingRight=4;overflow=hidden;rotatable=0;points=[[0,0.5],[1,0.5]];portConstraint=eastwest;whiteSpace=wrap;html=1;" parent="iJcZFBP5WNkSlqs788NF-51" vertex="1">
          <mxGeometry y="26" width="160" height="26" as="geometry" />
        </mxCell>
        <mxCell id="iJcZFBP5WNkSlqs788NF-53" value="" style="line;strokeWidth=1;fillColor=none;align=left;verticalAlign=middle;spacingTop=-1;spacingLeft=3;spacingRight=3;rotatable=0;labelPosition=right;points=[];portConstraint=eastwest;strokeColor=inherit;" parent="iJcZFBP5WNkSlqs788NF-51" vertex="1">
          <mxGeometry y="52" width="160" height="8" as="geometry" />
        </mxCell>
        <mxCell id="iJcZFBP5WNkSlqs788NF-54" value="+ QLHangSX()&lt;br&gt;+ menu()" style="text;strokeColor=none;fillColor=none;align=left;verticalAlign=top;spacingLeft=4;spacingRight=4;overflow=hidden;rotatable=0;points=[[0,0.5],[1,0.5]];portConstraint=eastwest;whiteSpace=wrap;html=1;" parent="iJcZFBP5WNkSlqs788NF-51" vertex="1">
          <mxGeometry y="60" width="160" height="40" as="geometry" />
        </mxCell>
        <mxCell id="iJcZFBP5WNkSlqs788NF-55" value="QLHoaDon" style="swimlane;fontStyle=1;align=center;verticalAlign=top;childLayout=stackLayout;horizontal=1;startSize=26;horizontalStack=0;resizeParent=1;resizeParentMax=0;resizeLast=0;collapsible=1;marginBottom=0;whiteSpace=wrap;html=1;" parent="1" vertex="1">
          <mxGeometry x="290" y="-790" width="160" height="100" as="geometry" />
        </mxCell>
        <mxCell id="iJcZFBP5WNkSlqs788NF-56" value="- dshd: DSHoaDon" style="text;strokeColor=none;fillColor=none;align=left;verticalAlign=top;spacingLeft=4;spacingRight=4;overflow=hidden;rotatable=0;points=[[0,0.5],[1,0.5]];portConstraint=eastwest;whiteSpace=wrap;html=1;" parent="iJcZFBP5WNkSlqs788NF-55" vertex="1">
          <mxGeometry y="26" width="160" height="26" as="geometry" />
        </mxCell>
        <mxCell id="iJcZFBP5WNkSlqs788NF-57" value="" style="line;strokeWidth=1;fillColor=none;align=left;verticalAlign=middle;spacingTop=-1;spacingLeft=3;spacingRight=3;rotatable=0;labelPosition=right;points=[];portConstraint=eastwest;strokeColor=inherit;" parent="iJcZFBP5WNkSlqs788NF-55" vertex="1">
          <mxGeometry y="52" width="160" height="8" as="geometry" />
        </mxCell>
        <mxCell id="iJcZFBP5WNkSlqs788NF-58" value="+ QLHoaDon()&lt;br&gt;+ menu()" style="text;strokeColor=none;fillColor=none;align=left;verticalAlign=top;spacingLeft=4;spacingRight=4;overflow=hidden;rotatable=0;points=[[0,0.5],[1,0.5]];portConstraint=eastwest;whiteSpace=wrap;html=1;" parent="iJcZFBP5WNkSlqs788NF-55" vertex="1">
          <mxGeometry y="60" width="160" height="40" as="geometry" />
        </mxCell>
        <mxCell id="iJcZFBP5WNkSlqs788NF-59" value="QLKhachHang" style="swimlane;fontStyle=1;align=center;verticalAlign=top;childLayout=stackLayout;horizontal=1;startSize=26;horizontalStack=0;resizeParent=1;resizeParentMax=0;resizeLast=0;collapsible=1;marginBottom=0;whiteSpace=wrap;html=1;" parent="1" vertex="1">
          <mxGeometry x="-0.5" y="-845" width="160" height="100" as="geometry" />
        </mxCell>
        <mxCell id="iJcZFBP5WNkSlqs788NF-60" value="- dskh: DSKhachHang" style="text;strokeColor=none;fillColor=none;align=left;verticalAlign=top;spacingLeft=4;spacingRight=4;overflow=hidden;rotatable=0;points=[[0,0.5],[1,0.5]];portConstraint=eastwest;whiteSpace=wrap;html=1;" parent="iJcZFBP5WNkSlqs788NF-59" vertex="1">
          <mxGeometry y="26" width="160" height="26" as="geometry" />
        </mxCell>
        <mxCell id="iJcZFBP5WNkSlqs788NF-61" value="" style="line;strokeWidth=1;fillColor=none;align=left;verticalAlign=middle;spacingTop=-1;spacingLeft=3;spacingRight=3;rotatable=0;labelPosition=right;points=[];portConstraint=eastwest;strokeColor=inherit;" parent="iJcZFBP5WNkSlqs788NF-59" vertex="1">
          <mxGeometry y="52" width="160" height="8" as="geometry" />
        </mxCell>
        <mxCell id="iJcZFBP5WNkSlqs788NF-62" value="+ QLKhachHang()&lt;div&gt;+ menu()&lt;/div&gt;" style="text;strokeColor=none;fillColor=none;align=left;verticalAlign=top;spacingLeft=4;spacingRight=4;overflow=hidden;rotatable=0;points=[[0,0.5],[1,0.5]];portConstraint=eastwest;whiteSpace=wrap;html=1;" parent="iJcZFBP5WNkSlqs788NF-59" vertex="1">
          <mxGeometry y="60" width="160" height="40" as="geometry" />
        </mxCell>
        <mxCell id="oT49b-B8dAcFB7KdIcNo-25" value="KhachHang" style="swimlane;fontStyle=1;align=center;verticalAlign=top;childLayout=stackLayout;horizontal=1;startSize=26;horizontalStack=0;resizeParent=1;resizeParentMax=0;resizeLast=0;collapsible=1;marginBottom=0;whiteSpace=wrap;html=1;" parent="1" vertex="1">
          <mxGeometry x="-23" y="-405" width="217" height="374" as="geometry" />
        </mxCell>
        <mxCell id="oT49b-B8dAcFB7KdIcNo-26" value="- makh: int&lt;br&gt;- sotuoi: int&lt;br&gt;- sdtkh: long&lt;br&gt;- tenkh: String&lt;br&gt;- diachikh: String&lt;br&gt;- phai: String" style="text;strokeColor=none;fillColor=none;align=left;verticalAlign=top;spacingLeft=4;spacingRight=4;overflow=hidden;rotatable=0;points=[[0,0.5],[1,0.5]];portConstraint=eastwest;whiteSpace=wrap;html=1;" parent="oT49b-B8dAcFB7KdIcNo-25" vertex="1">
          <mxGeometry y="26" width="217" height="94" as="geometry" />
        </mxCell>
        <mxCell id="oT49b-B8dAcFB7KdIcNo-27" value="" style="line;strokeWidth=1;fillColor=none;align=left;verticalAlign=middle;spacingTop=-1;spacingLeft=3;spacingRight=3;rotatable=0;labelPosition=right;points=[];portConstraint=eastwest;strokeColor=inherit;" parent="oT49b-B8dAcFB7KdIcNo-25" vertex="1">
          <mxGeometry y="120" width="217" height="8" as="geometry" />
        </mxCell>
        <mxCell id="oT49b-B8dAcFB7KdIcNo-28" value="+ getMakh(): int&lt;br&gt;+ setMakh(int makh)&lt;br&gt;+ getSotuoi(): String&lt;br&gt;+ setSotuoi(String sotuoi)&lt;br&gt;+ getSdtkh(): String&lt;br&gt;+ setSdtkh(String sdtkh)&lt;br&gt;+ getTenkh(): String&lt;br&gt;+ setTenkh(String tenkh)&lt;br&gt;+ getDiachikh(): String&lt;br&gt;+ setDiachikh(String diachikh)&lt;br&gt;+ getPhai(): String&lt;br&gt;+ setPhai(String phai)&lt;br&gt;+ nhap()&lt;br&gt;+ xuat()&lt;div&gt;+ sua()&lt;br&gt;+ toString()&lt;/div&gt;" style="text;strokeColor=none;fillColor=none;align=left;verticalAlign=top;spacingLeft=4;spacingRight=4;overflow=hidden;rotatable=0;points=[[0,0.5],[1,0.5]];portConstraint=eastwest;whiteSpace=wrap;html=1;" parent="oT49b-B8dAcFB7KdIcNo-25" vertex="1">
          <mxGeometry y="128" width="217" height="246" as="geometry" />
        </mxCell>
        <mxCell id="oT49b-B8dAcFB7KdIcNo-29" value="DSXeMay" style="swimlane;fontStyle=1;align=center;verticalAlign=top;childLayout=stackLayout;horizontal=1;startSize=26;horizontalStack=0;resizeParent=1;resizeParentMax=0;resizeLast=0;collapsible=1;marginBottom=0;whiteSpace=wrap;html=1;" parent="1" vertex="1">
          <mxGeometry x="-294" y="-690" width="160" height="154" as="geometry" />
        </mxCell>
        <mxCell id="oT49b-B8dAcFB7KdIcNo-30" value="&lt;u&gt;- maxmtt: int&lt;/u&gt;" style="text;strokeColor=none;fillColor=none;align=left;verticalAlign=top;spacingLeft=4;spacingRight=4;overflow=hidden;rotatable=0;points=[[0,0.5],[1,0.5]];portConstraint=eastwest;whiteSpace=wrap;html=1;" parent="oT49b-B8dAcFB7KdIcNo-29" vertex="1">
          <mxGeometry y="26" width="160" height="26" as="geometry" />
        </mxCell>
        <mxCell id="oT49b-B8dAcFB7KdIcNo-31" value="" style="line;strokeWidth=1;fillColor=none;align=left;verticalAlign=middle;spacingTop=-1;spacingLeft=3;spacingRight=3;rotatable=0;labelPosition=right;points=[];portConstraint=eastwest;strokeColor=inherit;" parent="oT49b-B8dAcFB7KdIcNo-29" vertex="1">
          <mxGeometry y="52" width="160" height="8" as="geometry" />
        </mxCell>
        <mxCell id="oT49b-B8dAcFB7KdIcNo-32" value="+ themXemay()&lt;br&gt;+ xoaXemay()&lt;br&gt;+ suaXemay()&lt;br&gt;+ timkiemXemay()&lt;br&gt;+ GhiFile()&lt;br&gt;+ DocFile()" style="text;strokeColor=none;fillColor=none;align=left;verticalAlign=top;spacingLeft=4;spacingRight=4;overflow=hidden;rotatable=0;points=[[0,0.5],[1,0.5]];portConstraint=eastwest;whiteSpace=wrap;html=1;" parent="oT49b-B8dAcFB7KdIcNo-29" vertex="1">
          <mxGeometry y="60" width="160" height="94" as="geometry" />
        </mxCell>
        <mxCell id="oT49b-B8dAcFB7KdIcNo-33" value="DSNhanSu" style="swimlane;fontStyle=1;align=center;verticalAlign=top;childLayout=stackLayout;horizontal=1;startSize=26;horizontalStack=0;resizeParent=1;resizeParentMax=0;resizeLast=0;collapsible=1;marginBottom=0;whiteSpace=wrap;html=1;" parent="1" vertex="1">
          <mxGeometry x="882" y="-690" width="160" height="171" as="geometry" />
        </mxCell>
        <mxCell id="oT49b-B8dAcFB7KdIcNo-34" value="&lt;u&gt;- manv: int&lt;/u&gt;" style="text;strokeColor=none;fillColor=none;align=left;verticalAlign=top;spacingLeft=4;spacingRight=4;overflow=hidden;rotatable=0;points=[[0,0.5],[1,0.5]];portConstraint=eastwest;whiteSpace=wrap;html=1;" parent="oT49b-B8dAcFB7KdIcNo-33" vertex="1">
          <mxGeometry y="26" width="160" height="26" as="geometry" />
        </mxCell>
        <mxCell id="oT49b-B8dAcFB7KdIcNo-35" value="" style="line;strokeWidth=1;fillColor=none;align=left;verticalAlign=middle;spacingTop=-1;spacingLeft=3;spacingRight=3;rotatable=0;labelPosition=right;points=[];portConstraint=eastwest;strokeColor=inherit;" parent="oT49b-B8dAcFB7KdIcNo-33" vertex="1">
          <mxGeometry y="52" width="160" height="8" as="geometry" />
        </mxCell>
        <mxCell id="oT49b-B8dAcFB7KdIcNo-36" value="&lt;div&gt;+ XemNS()&lt;br&gt;&lt;/div&gt;+ ThemNS()&lt;div&gt;+ SuaNS()&lt;br&gt;&lt;/div&gt;&lt;div&gt;+ XoaNS()&lt;br&gt;&lt;/div&gt;&lt;div&gt;+ TimKiem&lt;span style=&quot;background-color: initial;&quot;&gt;NS()&lt;/span&gt;&lt;/div&gt;&lt;div&gt;+ GhiFile()&lt;span style=&quot;background-color: initial;&quot;&gt;&lt;br&gt;&lt;/span&gt;&lt;/div&gt;&lt;div&gt;+ DocFile()&lt;br&gt;&lt;/div&gt;" style="text;strokeColor=none;fillColor=none;align=left;verticalAlign=top;spacingLeft=4;spacingRight=4;overflow=hidden;rotatable=0;points=[[0,0.5],[1,0.5]];portConstraint=eastwest;whiteSpace=wrap;html=1;" parent="oT49b-B8dAcFB7KdIcNo-33" vertex="1">
          <mxGeometry y="60" width="160" height="111" as="geometry" />
        </mxCell>
        <mxCell id="oT49b-B8dAcFB7KdIcNo-41" value="DSKhachHang" style="swimlane;fontStyle=1;align=center;verticalAlign=top;childLayout=stackLayout;horizontal=1;startSize=26;horizontalStack=0;resizeParent=1;resizeParentMax=0;resizeLast=0;collapsible=1;marginBottom=0;whiteSpace=wrap;html=1;" parent="1" vertex="1">
          <mxGeometry x="-0.5" y="-650" width="160" height="173" as="geometry" />
        </mxCell>
        <mxCell id="oT49b-B8dAcFB7KdIcNo-42" value="&lt;u&gt;- makhtt: int&lt;/u&gt;" style="text;strokeColor=none;fillColor=none;align=left;verticalAlign=top;spacingLeft=4;spacingRight=4;overflow=hidden;rotatable=0;points=[[0,0.5],[1,0.5]];portConstraint=eastwest;whiteSpace=wrap;html=1;" parent="oT49b-B8dAcFB7KdIcNo-41" vertex="1">
          <mxGeometry y="26" width="160" height="26" as="geometry" />
        </mxCell>
        <mxCell id="oT49b-B8dAcFB7KdIcNo-43" value="" style="line;strokeWidth=1;fillColor=none;align=left;verticalAlign=middle;spacingTop=-1;spacingLeft=3;spacingRight=3;rotatable=0;labelPosition=right;points=[];portConstraint=eastwest;strokeColor=inherit;" parent="oT49b-B8dAcFB7KdIcNo-41" vertex="1">
          <mxGeometry y="52" width="160" height="8" as="geometry" />
        </mxCell>
        <mxCell id="oT49b-B8dAcFB7KdIcNo-44" value="&lt;div&gt;+ xemKhachhang()&lt;/div&gt;+ themKhachhang()&lt;br&gt;+ suaKhachhang()&lt;br&gt;+ xoaKhachhang()&lt;div&gt;+ timkiemKhachhang()&lt;br&gt;+ GhiFile()&lt;br&gt;+ DocFile()&lt;/div&gt;" style="text;strokeColor=none;fillColor=none;align=left;verticalAlign=top;spacingLeft=4;spacingRight=4;overflow=hidden;rotatable=0;points=[[0,0.5],[1,0.5]];portConstraint=eastwest;whiteSpace=wrap;html=1;" parent="oT49b-B8dAcFB7KdIcNo-41" vertex="1">
          <mxGeometry y="60" width="160" height="113" as="geometry" />
        </mxCell>
        <mxCell id="oT49b-B8dAcFB7KdIcNo-45" value="XeMay" style="swimlane;fontStyle=1;align=center;verticalAlign=top;childLayout=stackLayout;horizontal=1;startSize=26;horizontalStack=0;resizeParent=1;resizeParentMax=0;resizeLast=0;collapsible=1;marginBottom=0;whiteSpace=wrap;html=1;" parent="1" vertex="1">
          <mxGeometry x="-737" y="-454" width="670" height="443" as="geometry" />
        </mxCell>
        <mxCell id="oT49b-B8dAcFB7KdIcNo-46" value="- masp: int&lt;div&gt;- soluongnhaphang:int&lt;br&gt;- tensp: String&lt;/div&gt;&lt;div&gt;- loaisp: String&lt;/div&gt;&lt;div&gt;- tiennhaphang: double&lt;/div&gt;&lt;div&gt;- giasp: double&lt;/div&gt;" style="text;strokeColor=none;fillColor=none;align=left;verticalAlign=top;spacingLeft=4;spacingRight=4;overflow=hidden;rotatable=0;points=[[0,0.5],[1,0.5]];portConstraint=eastwest;whiteSpace=wrap;html=1;" parent="oT49b-B8dAcFB7KdIcNo-45" vertex="1">
          <mxGeometry y="26" width="670" height="98" as="geometry" />
        </mxCell>
        <mxCell id="oT49b-B8dAcFB7KdIcNo-47" value="" style="line;strokeWidth=1;fillColor=none;align=left;verticalAlign=middle;spacingTop=-1;spacingLeft=3;spacingRight=3;rotatable=0;labelPosition=right;points=[];portConstraint=eastwest;strokeColor=inherit;" parent="oT49b-B8dAcFB7KdIcNo-45" vertex="1">
          <mxGeometry y="124" width="670" height="8" as="geometry" />
        </mxCell>
        <mxCell id="oT49b-B8dAcFB7KdIcNo-48" value="&lt;div&gt;+ XeMay()&lt;br&gt;+ XeMay(int masp, int soluongnhaphang, String tensp, String loaisp, double tiennhaphang, double giasp, HangSX hangSX)&lt;/div&gt;+ getMasp(): int&lt;br&gt;+ setMasp(int masp)&lt;br&gt;+ getSoluongnhaphang(): int&lt;br&gt;+ setSoluongnhaphang(int soluongnhaphang)&lt;br&gt;+ getTensp(): String&lt;br&gt;+ setTensp(String tensp)&lt;br&gt;+ getLoaisp(): String&lt;br&gt;+ setLoaisp(String loaisp)&lt;br&gt;+ getTiennhaphang(): double&lt;br&gt;+ setTiennhaphang(double tiennhaphang)&lt;br&gt;+ getGiasp(): double&lt;br&gt;+ setGiasp(double giasp)&lt;br&gt;+ getHangSX(): String&lt;br&gt;+ setHangSX(String hangSX)&lt;br&gt;+ nhap()&lt;br&gt;+ xuat()&lt;br&gt;+ sua()&lt;br&gt;+ toString()&lt;br&gt;+ nhapHangSX()" style="text;strokeColor=none;fillColor=none;align=left;verticalAlign=top;spacingLeft=4;spacingRight=4;overflow=hidden;rotatable=0;points=[[0,0.5],[1,0.5]];portConstraint=eastwest;whiteSpace=wrap;html=1;" parent="oT49b-B8dAcFB7KdIcNo-45" vertex="1">
          <mxGeometry y="132" width="670" height="311" as="geometry" />
        </mxCell>
        <mxCell id="oT49b-B8dAcFB7KdIcNo-49" value="HangSX" style="swimlane;fontStyle=1;align=center;verticalAlign=top;childLayout=stackLayout;horizontal=1;startSize=26;horizontalStack=0;resizeParent=1;resizeParentMax=0;resizeLast=0;collapsible=1;marginBottom=0;whiteSpace=wrap;html=1;" parent="1" vertex="1">
          <mxGeometry x="557" y="-173" width="369.5" height="297" as="geometry" />
        </mxCell>
        <mxCell id="oT49b-B8dAcFB7KdIcNo-50" value="- mahsx: int&amp;nbsp;&lt;br&gt;- sdthsx: String&lt;br&gt;- tenhsx: String&lt;br&gt;- diachihsx: String" style="text;strokeColor=none;fillColor=none;align=left;verticalAlign=top;spacingLeft=4;spacingRight=4;overflow=hidden;rotatable=0;points=[[0,0.5],[1,0.5]];portConstraint=eastwest;whiteSpace=wrap;html=1;" parent="oT49b-B8dAcFB7KdIcNo-49" vertex="1">
          <mxGeometry y="26" width="369.5" height="64" as="geometry" />
        </mxCell>
        <mxCell id="oT49b-B8dAcFB7KdIcNo-51" value="" style="line;strokeWidth=1;fillColor=none;align=left;verticalAlign=middle;spacingTop=-1;spacingLeft=3;spacingRight=3;rotatable=0;labelPosition=right;points=[];portConstraint=eastwest;strokeColor=inherit;" parent="oT49b-B8dAcFB7KdIcNo-49" vertex="1">
          <mxGeometry y="90" width="369.5" height="8" as="geometry" />
        </mxCell>
        <mxCell id="oT49b-B8dAcFB7KdIcNo-52" value="&lt;div&gt;+&amp;nbsp;HangSX()&lt;/div&gt;&lt;div&gt;+&amp;nbsp;HangSX(int mahsx, String tenhsx, String diachihsx, long sdthsx)&lt;/div&gt;+ getMahsx(): int&lt;br&gt;+ setMahsx(int mahsx)&lt;br&gt;+ getSdthsx(): String&lt;br&gt;+ setSdthsx(String sdthsx)&lt;br&gt;+ getTenhsx(): String&lt;br&gt;+ setTenhsx(String tenhsx)&lt;br&gt;+ getDiachihsx(): String&lt;br&gt;+ setDiachihsx(String diachihsx)&lt;br&gt;+ nhap()&lt;br&gt;+ xuat()&lt;br&gt;+ sua()" style="text;strokeColor=none;fillColor=none;align=left;verticalAlign=top;spacingLeft=4;spacingRight=4;overflow=hidden;rotatable=0;points=[[0,0.5],[1,0.5]];portConstraint=eastwest;whiteSpace=wrap;html=1;" parent="oT49b-B8dAcFB7KdIcNo-49" vertex="1">
          <mxGeometry y="98" width="369.5" height="199" as="geometry" />
        </mxCell>
        <mxCell id="oT49b-B8dAcFB7KdIcNo-53" value="HoaDon" style="swimlane;fontStyle=1;align=center;verticalAlign=top;childLayout=stackLayout;horizontal=1;startSize=26;horizontalStack=0;resizeParent=1;resizeParentMax=0;resizeLast=0;collapsible=1;marginBottom=0;whiteSpace=wrap;html=1;" parent="1" vertex="1">
          <mxGeometry x="245" y="-232" width="250" height="230" as="geometry" />
        </mxCell>
        <mxCell id="oT49b-B8dAcFB7KdIcNo-54" value="- mahd: int&amp;nbsp;&lt;br&gt;- ngaythanhtoan: String&lt;br&gt;- SoSPmua: int" style="text;strokeColor=none;fillColor=none;align=left;verticalAlign=top;spacingLeft=4;spacingRight=4;overflow=hidden;rotatable=0;points=[[0,0.5],[1,0.5]];portConstraint=eastwest;whiteSpace=wrap;html=1;" parent="oT49b-B8dAcFB7KdIcNo-53" vertex="1">
          <mxGeometry y="26" width="250" height="51" as="geometry" />
        </mxCell>
        <mxCell id="oT49b-B8dAcFB7KdIcNo-55" value="" style="line;strokeWidth=1;fillColor=none;align=left;verticalAlign=middle;spacingTop=-1;spacingLeft=3;spacingRight=3;rotatable=0;labelPosition=right;points=[];portConstraint=eastwest;strokeColor=inherit;" parent="oT49b-B8dAcFB7KdIcNo-53" vertex="1">
          <mxGeometry y="77" width="250" height="8" as="geometry" />
        </mxCell>
        <mxCell id="oT49b-B8dAcFB7KdIcNo-56" value="+ HoaDon()&lt;br&gt;+ HoaDon(mahd, ngaythanhtoan)&lt;div&gt;+ getMahoadon(): int&lt;br&gt;+ setMahoadon(int mahoadon)&lt;br&gt;+ getNgaythanhtoan: String&lt;br&gt;+ setNgaythanhtoan(String ngaythanhtoan)&lt;br&gt;+ nhap(&lt;span style=&quot;background-color: initial;&quot;&gt;)&lt;/span&gt;&lt;/div&gt;&lt;div&gt;+ xuat()&lt;br&gt;+ sua()&lt;br&gt;&lt;br&gt;&lt;/div&gt;" style="text;strokeColor=none;fillColor=none;align=left;verticalAlign=top;spacingLeft=4;spacingRight=4;overflow=hidden;rotatable=0;points=[[0,0.5],[1,0.5]];portConstraint=eastwest;whiteSpace=wrap;html=1;" parent="oT49b-B8dAcFB7KdIcNo-53" vertex="1">
          <mxGeometry y="85" width="250" height="145" as="geometry" />
        </mxCell>
        <mxCell id="gpAHWMkQ7fagHkn4sIOI-4" value="" style="endArrow=open;endFill=1;endSize=12;html=1;rounded=0;" parent="1" source="iJcZFBP5WNkSlqs788NF-43" target="iJcZFBP5WNkSlqs788NF-35" edge="1">
          <mxGeometry width="160" relative="1" as="geometry">
            <mxPoint x="-330" y="-870" as="sourcePoint" />
            <mxPoint x="-170" y="-870" as="targetPoint" />
          </mxGeometry>
        </mxCell>
        <mxCell id="gpAHWMkQ7fagHkn4sIOI-5" value="" style="endArrow=open;endFill=1;endSize=12;html=1;rounded=0;" parent="1" source="iJcZFBP5WNkSlqs788NF-47" target="iJcZFBP5WNkSlqs788NF-35" edge="1">
          <mxGeometry width="160" relative="1" as="geometry">
            <mxPoint x="230" y="-790" as="sourcePoint" />
            <mxPoint x="390" y="-790" as="targetPoint" />
          </mxGeometry>
        </mxCell>
        <mxCell id="gpAHWMkQ7fagHkn4sIOI-6" value="" style="endArrow=open;endFill=1;endSize=12;html=1;rounded=0;" parent="1" source="iJcZFBP5WNkSlqs788NF-55" target="iJcZFBP5WNkSlqs788NF-35" edge="1">
          <mxGeometry width="160" relative="1" as="geometry">
            <mxPoint x="230" y="-790" as="sourcePoint" />
            <mxPoint x="390" y="-790" as="targetPoint" />
          </mxGeometry>
        </mxCell>
        <mxCell id="gpAHWMkQ7fagHkn4sIOI-7" value="" style="endArrow=open;endFill=1;endSize=12;html=1;rounded=0;" parent="1" source="iJcZFBP5WNkSlqs788NF-59" target="iJcZFBP5WNkSlqs788NF-35" edge="1">
          <mxGeometry width="160" relative="1" as="geometry">
            <mxPoint x="230" y="-790" as="sourcePoint" />
            <mxPoint x="390" y="-790" as="targetPoint" />
          </mxGeometry>
        </mxCell>
        <mxCell id="gpAHWMkQ7fagHkn4sIOI-8" value="" style="endArrow=open;endFill=1;endSize=12;html=1;rounded=0;" parent="1" source="iJcZFBP5WNkSlqs788NF-51" target="iJcZFBP5WNkSlqs788NF-35" edge="1">
          <mxGeometry width="160" relative="1" as="geometry">
            <mxPoint x="720" y="-790" as="sourcePoint" />
            <mxPoint x="880" y="-790" as="targetPoint" />
          </mxGeometry>
        </mxCell>
        <mxCell id="gpAHWMkQ7fagHkn4sIOI-9" value="" style="endArrow=diamondThin;endFill=0;endSize=24;html=1;rounded=0;" parent="1" source="iJcZFBP5WNkSlqs788NF-43" target="oT49b-B8dAcFB7KdIcNo-29" edge="1">
          <mxGeometry width="160" relative="1" as="geometry">
            <mxPoint x="-224" y="-650" as="sourcePoint" />
            <mxPoint x="-64" y="-650" as="targetPoint" />
          </mxGeometry>
        </mxCell>
        <mxCell id="gpAHWMkQ7fagHkn4sIOI-10" value="" style="endArrow=diamondThin;endFill=0;endSize=24;html=1;rounded=0;" parent="1" source="iJcZFBP5WNkSlqs788NF-47" target="oT49b-B8dAcFB7KdIcNo-33" edge="1">
          <mxGeometry width="160" relative="1" as="geometry">
            <mxPoint x="1058.2" y="-862" as="sourcePoint" />
            <mxPoint x="1058.2" y="-752" as="targetPoint" />
          </mxGeometry>
        </mxCell>
        <mxCell id="gpAHWMkQ7fagHkn4sIOI-12" value="" style="endArrow=diamondThin;endFill=0;endSize=24;html=1;rounded=0;" parent="1" source="iJcZFBP5WNkSlqs788NF-59" target="oT49b-B8dAcFB7KdIcNo-41" edge="1">
          <mxGeometry width="160" relative="1" as="geometry">
            <mxPoint x="17" y="-682" as="sourcePoint" />
            <mxPoint x="17" y="-572" as="targetPoint" />
          </mxGeometry>
        </mxCell>
        <mxCell id="gpAHWMkQ7fagHkn4sIOI-13" value="" style="endArrow=diamondThin;endFill=0;endSize=24;html=1;rounded=0;" parent="1" source="iJcZFBP5WNkSlqs788NF-51" target="8QEylS4FPjr_UHjatzHV-1" edge="1">
          <mxGeometry width="160" relative="1" as="geometry">
            <mxPoint x="399.56999999999994" y="-737" as="sourcePoint" />
            <mxPoint x="679.1100323624596" y="-538" as="targetPoint" />
          </mxGeometry>
        </mxCell>
        <mxCell id="gpAHWMkQ7fagHkn4sIOI-14" value="" style="endArrow=none;html=1;rounded=0;" parent="1" source="gpAHWMkQ7fagHkn4sIOI-18" target="oT49b-B8dAcFB7KdIcNo-25" edge="1">
          <mxGeometry width="50" height="50" relative="1" as="geometry">
            <mxPoint x="-102" y="330" as="sourcePoint" />
            <mxPoint x="170" y="-50" as="targetPoint" />
          </mxGeometry>
        </mxCell>
        <mxCell id="gpAHWMkQ7fagHkn4sIOI-15" value="" style="endArrow=none;html=1;rounded=0;" parent="1" source="gpAHWMkQ7fagHkn4sIOI-22" target="oT49b-B8dAcFB7KdIcNo-25" edge="1">
          <mxGeometry width="50" height="50" relative="1" as="geometry">
            <mxPoint x="253.20000000000027" y="330" as="sourcePoint" />
            <mxPoint x="360" y="-170" as="targetPoint" />
          </mxGeometry>
        </mxCell>
        <mxCell id="gpAHWMkQ7fagHkn4sIOI-16" value="" style="endArrow=none;html=1;rounded=0;" parent="1" source="gpAHWMkQ7fagHkn4sIOI-22" target="oT49b-B8dAcFB7KdIcNo-49" edge="1">
          <mxGeometry width="50" height="50" relative="1" as="geometry">
            <mxPoint x="270.9375" y="330" as="sourcePoint" />
            <mxPoint x="450" y="-310" as="targetPoint" />
          </mxGeometry>
        </mxCell>
        <mxCell id="gpAHWMkQ7fagHkn4sIOI-17" value="" style="endArrow=none;html=1;rounded=0;" parent="1" source="gpAHWMkQ7fagHkn4sIOI-18" target="oT49b-B8dAcFB7KdIcNo-49" edge="1">
          <mxGeometry width="50" height="50" relative="1" as="geometry">
            <mxPoint x="-84.609375" y="330" as="sourcePoint" />
            <mxPoint x="450" y="-310" as="targetPoint" />
          </mxGeometry>
        </mxCell>
        <mxCell id="gpAHWMkQ7fagHkn4sIOI-18" value="INhap" style="swimlane;fontStyle=0;childLayout=stackLayout;horizontal=1;startSize=26;fillColor=none;horizontalStack=0;resizeParent=1;resizeParentMax=0;resizeLast=0;collapsible=1;marginBottom=0;whiteSpace=wrap;html=1;" parent="1" vertex="1">
          <mxGeometry x="150" y="617" width="140" height="52" as="geometry" />
        </mxCell>
        <mxCell id="gpAHWMkQ7fagHkn4sIOI-20" value="nhap()" style="text;strokeColor=none;fillColor=none;align=left;verticalAlign=top;spacingLeft=4;spacingRight=4;overflow=hidden;rotatable=0;points=[[0,0.5],[1,0.5]];portConstraint=eastwest;whiteSpace=wrap;html=1;" parent="gpAHWMkQ7fagHkn4sIOI-18" vertex="1">
          <mxGeometry y="26" width="140" height="26" as="geometry" />
        </mxCell>
        <mxCell id="gpAHWMkQ7fagHkn4sIOI-22" value="IXuat" style="swimlane;fontStyle=0;childLayout=stackLayout;horizontal=1;startSize=26;fillColor=none;horizontalStack=0;resizeParent=1;resizeParentMax=0;resizeLast=0;collapsible=1;marginBottom=0;whiteSpace=wrap;html=1;" parent="1" vertex="1">
          <mxGeometry x="450" y="619" width="140" height="52" as="geometry" />
        </mxCell>
        <mxCell id="gpAHWMkQ7fagHkn4sIOI-23" value="xuat()" style="text;strokeColor=none;fillColor=none;align=left;verticalAlign=top;spacingLeft=4;spacingRight=4;overflow=hidden;rotatable=0;points=[[0,0.5],[1,0.5]];portConstraint=eastwest;whiteSpace=wrap;html=1;" parent="gpAHWMkQ7fagHkn4sIOI-22" vertex="1">
          <mxGeometry y="26" width="140" height="26" as="geometry" />
        </mxCell>
        <mxCell id="gpAHWMkQ7fagHkn4sIOI-24" value="" style="endArrow=diamondThin;endFill=0;endSize=24;html=1;rounded=0;" parent="1" source="oT49b-B8dAcFB7KdIcNo-41" target="oT49b-B8dAcFB7KdIcNo-25" edge="1">
          <mxGeometry width="160" relative="1" as="geometry">
            <mxPoint x="-138" y="-443" as="sourcePoint" />
            <mxPoint x="22" y="-443" as="targetPoint" />
          </mxGeometry>
        </mxCell>
        <mxCell id="gpAHWMkQ7fagHkn4sIOI-25" value="" style="endArrow=diamondThin;endFill=0;endSize=24;html=1;rounded=0;" parent="1" source="8QEylS4FPjr_UHjatzHV-1" target="oT49b-B8dAcFB7KdIcNo-49" edge="1">
          <mxGeometry width="160" relative="1" as="geometry">
            <mxPoint x="696.2377210216109" y="-434" as="sourcePoint" />
            <mxPoint x="675" y="-418" as="targetPoint" />
          </mxGeometry>
        </mxCell>
        <mxCell id="gpAHWMkQ7fagHkn4sIOI-26" value="" style="endArrow=diamondThin;endFill=0;endSize=24;html=1;rounded=0;" parent="1" source="oT49b-B8dAcFB7KdIcNo-29" target="oT49b-B8dAcFB7KdIcNo-45" edge="1">
          <mxGeometry width="160" relative="1" as="geometry">
            <mxPoint x="-104" y="-440" as="sourcePoint" />
            <mxPoint x="56" y="-440" as="targetPoint" />
          </mxGeometry>
        </mxCell>
        <mxCell id="gpAHWMkQ7fagHkn4sIOI-27" value="" style="endArrow=none;html=1;rounded=0;" parent="1" source="oT49b-B8dAcFB7KdIcNo-45" target="gpAHWMkQ7fagHkn4sIOI-18" edge="1">
          <mxGeometry width="50" height="50" relative="1" as="geometry">
            <mxPoint x="140" y="220" as="sourcePoint" />
            <mxPoint x="190" y="170" as="targetPoint" />
          </mxGeometry>
        </mxCell>
        <mxCell id="4amq0cf6v7Hj1Vuj9f3A-1" value="NhanSu" style="swimlane;fontStyle=1;align=center;verticalAlign=top;childLayout=stackLayout;horizontal=1;startSize=26;horizontalStack=0;resizeParent=1;resizeParentMax=0;resizeLast=0;collapsible=1;marginBottom=0;whiteSpace=wrap;html=1;" parent="1" vertex="1">
          <mxGeometry x="981" y="-328" width="406" height="386" as="geometry" />
        </mxCell>
        <mxCell id="4amq0cf6v7Hj1Vuj9f3A-2" value="- manv: int&lt;br&gt;- ten: String&lt;br&gt;- age: String&lt;br&gt;- sdt: String&lt;br&gt;- ChucVu: String&lt;br&gt;- salary: int&lt;br&gt;- soluongnv: int" style="text;strokeColor=none;fillColor=none;align=left;verticalAlign=top;spacingLeft=4;spacingRight=4;overflow=hidden;rotatable=0;points=[[0,0.5],[1,0.5]];portConstraint=eastwest;whiteSpace=wrap;html=1;" parent="4amq0cf6v7Hj1Vuj9f3A-1" vertex="1">
          <mxGeometry y="26" width="406" height="108" as="geometry" />
        </mxCell>
        <mxCell id="4amq0cf6v7Hj1Vuj9f3A-3" value="" style="line;strokeWidth=1;fillColor=none;align=left;verticalAlign=middle;spacingTop=-1;spacingLeft=3;spacingRight=3;rotatable=0;labelPosition=right;points=[];portConstraint=eastwest;strokeColor=inherit;" parent="4amq0cf6v7Hj1Vuj9f3A-1" vertex="1">
          <mxGeometry y="134" width="406" height="8" as="geometry" />
        </mxCell>
        <mxCell id="4amq0cf6v7Hj1Vuj9f3A-4" value="&lt;div&gt;+&amp;nbsp;NhanSu()&lt;/div&gt;+&amp;nbsp;NhanSu(int manv,String ten, int age,long sdt ,String ChucVu, int salary)&lt;br&gt;+ getManv(): int&lt;br&gt;+ setManv(int manv)&lt;div&gt;+ getTen(): String&lt;br&gt;+ setTen(String ten)&lt;br&gt;&lt;/div&gt;&lt;div&gt;+ getAge(): String&lt;/div&gt;&lt;div&gt;+ setAge(String age)&lt;br&gt;&lt;/div&gt;&lt;div&gt;+ getSDT(): String&lt;br&gt;+ setSDT(String sdt)&lt;br&gt;&lt;/div&gt;&lt;div&gt;+ getChucVu(): String&lt;br&gt;+ setChucVu(String ChucVu)&lt;br&gt;&lt;/div&gt;&lt;div&gt;+ getSalary(): int&lt;br&gt;+ setSalary(int salary)&lt;br&gt;&lt;/div&gt;&lt;div&gt;+ nhap()&lt;br&gt;+ xuat()&lt;/div&gt;" style="text;strokeColor=none;fillColor=none;align=left;verticalAlign=top;spacingLeft=4;spacingRight=4;overflow=hidden;rotatable=0;points=[[0,0.5],[1,0.5]];portConstraint=eastwest;whiteSpace=wrap;html=1;" parent="4amq0cf6v7Hj1Vuj9f3A-1" vertex="1">
          <mxGeometry y="142" width="406" height="244" as="geometry" />
        </mxCell>
        <mxCell id="4amq0cf6v7Hj1Vuj9f3A-5" value="NhanVien&lt;div&gt;&lt;br&gt;&lt;/div&gt;" style="swimlane;fontStyle=1;align=center;verticalAlign=top;childLayout=stackLayout;horizontal=1;startSize=26;horizontalStack=0;resizeParent=1;resizeParentMax=0;resizeLast=0;collapsible=1;marginBottom=0;whiteSpace=wrap;html=1;" parent="1" vertex="1">
          <mxGeometry x="981" y="115" width="521" height="174" as="geometry" />
        </mxCell>
        <mxCell id="4amq0cf6v7Hj1Vuj9f3A-6" value="- SoSPban: int" style="text;strokeColor=none;fillColor=none;align=left;verticalAlign=top;spacingLeft=4;spacingRight=4;overflow=hidden;rotatable=0;points=[[0,0.5],[1,0.5]];portConstraint=eastwest;whiteSpace=wrap;html=1;" parent="4amq0cf6v7Hj1Vuj9f3A-5" vertex="1">
          <mxGeometry y="26" width="521" height="26" as="geometry" />
        </mxCell>
        <mxCell id="4amq0cf6v7Hj1Vuj9f3A-7" value="" style="line;strokeWidth=1;fillColor=none;align=left;verticalAlign=middle;spacingTop=-1;spacingLeft=3;spacingRight=3;rotatable=0;labelPosition=right;points=[];portConstraint=eastwest;strokeColor=inherit;" parent="4amq0cf6v7Hj1Vuj9f3A-5" vertex="1">
          <mxGeometry y="52" width="521" height="8" as="geometry" />
        </mxCell>
        <mxCell id="4amq0cf6v7Hj1Vuj9f3A-8" value="+ NhanVien()&lt;br&gt;+&amp;nbsp;NhanVien(int manv, String ten, String age,String sdt, String ChucVu, int salary, int SoSPban)&lt;div&gt;+ getSoSPban(): int&lt;br&gt;+ setSoSPban(int SoSPban)&lt;br&gt;+ nhap()&lt;br&gt;+ xuat()&lt;br&gt;+ finalsalary()&lt;/div&gt;" style="text;strokeColor=none;fillColor=none;align=left;verticalAlign=top;spacingLeft=4;spacingRight=4;overflow=hidden;rotatable=0;points=[[0,0.5],[1,0.5]];portConstraint=eastwest;whiteSpace=wrap;html=1;" parent="4amq0cf6v7Hj1Vuj9f3A-5" vertex="1">
          <mxGeometry y="60" width="521" height="114" as="geometry" />
        </mxCell>
        <mxCell id="4amq0cf6v7Hj1Vuj9f3A-9" value="XeXang" style="swimlane;fontStyle=1;align=center;verticalAlign=top;childLayout=stackLayout;horizontal=1;startSize=26;horizontalStack=0;resizeParent=1;resizeParentMax=0;resizeLast=0;collapsible=1;marginBottom=0;whiteSpace=wrap;html=1;" parent="1" vertex="1">
          <mxGeometry x="-1546" y="124" width="715" height="161" as="geometry" />
        </mxCell>
        <mxCell id="4amq0cf6v7Hj1Vuj9f3A-10" value="- dungtich: double" style="text;strokeColor=none;fillColor=none;align=left;verticalAlign=top;spacingLeft=4;spacingRight=4;overflow=hidden;rotatable=0;points=[[0,0.5],[1,0.5]];portConstraint=eastwest;whiteSpace=wrap;html=1;" parent="4amq0cf6v7Hj1Vuj9f3A-9" vertex="1">
          <mxGeometry y="26" width="715" height="26" as="geometry" />
        </mxCell>
        <mxCell id="4amq0cf6v7Hj1Vuj9f3A-11" value="" style="line;strokeWidth=1;fillColor=none;align=left;verticalAlign=middle;spacingTop=-1;spacingLeft=3;spacingRight=3;rotatable=0;labelPosition=right;points=[];portConstraint=eastwest;strokeColor=inherit;" parent="4amq0cf6v7Hj1Vuj9f3A-9" vertex="1">
          <mxGeometry y="52" width="715" height="8" as="geometry" />
        </mxCell>
        <mxCell id="4amq0cf6v7Hj1Vuj9f3A-12" value="+ XeXang()&lt;br&gt;+&amp;nbsp;&lt;span style=&quot;background-color: initial;&quot;&gt;XeXang(double dungtich, int masp, int soluong, String tenSP, String loaiSP, double gianhap, double giaban, HangSX hangsx)&lt;br&gt;+ getDungtich(): double&lt;/span&gt;&lt;div&gt;&lt;span style=&quot;background-color: initial;&quot;&gt;+ setDungtich(double dungtich)&lt;br&gt;+ nhap()&lt;br&gt;+ xuat()&lt;/span&gt;&lt;/div&gt;" style="text;strokeColor=none;fillColor=none;align=left;verticalAlign=top;spacingLeft=4;spacingRight=4;overflow=hidden;rotatable=0;points=[[0,0.5],[1,0.5]];portConstraint=eastwest;whiteSpace=wrap;html=1;" parent="4amq0cf6v7Hj1Vuj9f3A-9" vertex="1">
          <mxGeometry y="60" width="715" height="101" as="geometry" />
        </mxCell>
        <mxCell id="4amq0cf6v7Hj1Vuj9f3A-13" value="XeDien" style="swimlane;fontStyle=1;align=center;verticalAlign=top;childLayout=stackLayout;horizontal=1;startSize=26;horizontalStack=0;resizeParent=1;resizeParentMax=0;resizeLast=0;collapsible=1;marginBottom=0;whiteSpace=wrap;html=1;" parent="1" vertex="1">
          <mxGeometry x="-1542" y="-184" width="714" height="159" as="geometry" />
        </mxCell>
        <mxCell id="4amq0cf6v7Hj1Vuj9f3A-14" value="- dungluongpin: double" style="text;strokeColor=none;fillColor=none;align=left;verticalAlign=top;spacingLeft=4;spacingRight=4;overflow=hidden;rotatable=0;points=[[0,0.5],[1,0.5]];portConstraint=eastwest;whiteSpace=wrap;html=1;" parent="4amq0cf6v7Hj1Vuj9f3A-13" vertex="1">
          <mxGeometry y="26" width="714" height="26" as="geometry" />
        </mxCell>
        <mxCell id="4amq0cf6v7Hj1Vuj9f3A-15" value="" style="line;strokeWidth=1;fillColor=none;align=left;verticalAlign=middle;spacingTop=-1;spacingLeft=3;spacingRight=3;rotatable=0;labelPosition=right;points=[];portConstraint=eastwest;strokeColor=inherit;" parent="4amq0cf6v7Hj1Vuj9f3A-13" vertex="1">
          <mxGeometry y="52" width="714" height="8" as="geometry" />
        </mxCell>
        <mxCell id="4amq0cf6v7Hj1Vuj9f3A-16" value="+ XeDien()&lt;br&gt;+&amp;nbsp;&lt;span style=&quot;background-color: initial;&quot;&gt;XeDien(double dungluongpin, int masp, int soluong, String tenSP, String loaiSP, double gianhap, double giaban, HangSX hangsx)&lt;br&gt;+ getDungluongpin(): double&lt;/span&gt;&lt;div&gt;&lt;span style=&quot;background-color: initial;&quot;&gt;+ setDungluongpin(double dungluongpin)&lt;br&gt;+ nhap()&lt;br&gt;+ xuat()&lt;/span&gt;&lt;/div&gt;" style="text;strokeColor=none;fillColor=none;align=left;verticalAlign=top;spacingLeft=4;spacingRight=4;overflow=hidden;rotatable=0;points=[[0,0.5],[1,0.5]];portConstraint=eastwest;whiteSpace=wrap;html=1;" parent="4amq0cf6v7Hj1Vuj9f3A-13" vertex="1">
          <mxGeometry y="60" width="714" height="99" as="geometry" />
        </mxCell>
        <mxCell id="4amq0cf6v7Hj1Vuj9f3A-21" value="" style="endArrow=diamondThin;endFill=0;endSize=24;html=1;rounded=0;" parent="1" source="iJcZFBP5WNkSlqs788NF-55" target="4amq0cf6v7Hj1Vuj9f3A-17" edge="1">
          <mxGeometry width="160" relative="1" as="geometry">
            <mxPoint x="370" y="-690" as="sourcePoint" />
            <mxPoint x="370" y="-620" as="targetPoint" />
          </mxGeometry>
        </mxCell>
        <mxCell id="4amq0cf6v7Hj1Vuj9f3A-17" value="DSHoaDon" style="swimlane;fontStyle=1;align=center;verticalAlign=top;childLayout=stackLayout;horizontal=1;startSize=26;horizontalStack=0;resizeParent=1;resizeParentMax=0;resizeLast=0;collapsible=1;marginBottom=0;whiteSpace=wrap;html=1;" parent="1" vertex="1">
          <mxGeometry x="290" y="-612" width="160" height="171" as="geometry" />
        </mxCell>
        <mxCell id="4amq0cf6v7Hj1Vuj9f3A-18" value="&lt;u&gt;- manv: int&lt;/u&gt;" style="text;strokeColor=none;fillColor=none;align=left;verticalAlign=top;spacingLeft=4;spacingRight=4;overflow=hidden;rotatable=0;points=[[0,0.5],[1,0.5]];portConstraint=eastwest;whiteSpace=wrap;html=1;" parent="4amq0cf6v7Hj1Vuj9f3A-17" vertex="1">
          <mxGeometry y="26" width="160" height="26" as="geometry" />
        </mxCell>
        <mxCell id="4amq0cf6v7Hj1Vuj9f3A-19" value="" style="line;strokeWidth=1;fillColor=none;align=left;verticalAlign=middle;spacingTop=-1;spacingLeft=3;spacingRight=3;rotatable=0;labelPosition=right;points=[];portConstraint=eastwest;strokeColor=inherit;" parent="4amq0cf6v7Hj1Vuj9f3A-17" vertex="1">
          <mxGeometry y="52" width="160" height="8" as="geometry" />
        </mxCell>
        <mxCell id="4amq0cf6v7Hj1Vuj9f3A-20" value="&lt;div&gt;+ XemNS()&lt;br&gt;&lt;/div&gt;+ ThemNS()&lt;div&gt;+ SuaNS()&lt;br&gt;&lt;/div&gt;&lt;div&gt;+ XoaNS()&lt;br&gt;&lt;/div&gt;&lt;div&gt;+ TimKiem&lt;span style=&quot;background-color: initial;&quot;&gt;NS()&lt;/span&gt;&lt;/div&gt;&lt;div&gt;+ GhiFile()&lt;span style=&quot;background-color: initial;&quot;&gt;&lt;br&gt;&lt;/span&gt;&lt;/div&gt;&lt;div&gt;+ DocFile()&lt;br&gt;&lt;/div&gt;" style="text;strokeColor=none;fillColor=none;align=left;verticalAlign=top;spacingLeft=4;spacingRight=4;overflow=hidden;rotatable=0;points=[[0,0.5],[1,0.5]];portConstraint=eastwest;whiteSpace=wrap;html=1;" parent="4amq0cf6v7Hj1Vuj9f3A-17" vertex="1">
          <mxGeometry y="60" width="160" height="111" as="geometry" />
        </mxCell>
        <mxCell id="4amq0cf6v7Hj1Vuj9f3A-22" value="" style="endArrow=diamondThin;endFill=0;endSize=24;html=1;rounded=0;" parent="1" source="oT49b-B8dAcFB7KdIcNo-33" target="4amq0cf6v7Hj1Vuj9f3A-1" edge="1">
          <mxGeometry width="160" relative="1" as="geometry">
            <mxPoint x="1076.5" y="-248" as="sourcePoint" />
            <mxPoint x="1236.5" y="-248" as="targetPoint" />
          </mxGeometry>
        </mxCell>
        <mxCell id="4amq0cf6v7Hj1Vuj9f3A-25" value="" style="endArrow=block;endSize=16;endFill=0;html=1;rounded=0;" parent="1" source="4amq0cf6v7Hj1Vuj9f3A-5" target="4amq0cf6v7Hj1Vuj9f3A-1" edge="1">
          <mxGeometry width="160" relative="1" as="geometry">
            <mxPoint x="333" y="99" as="sourcePoint" />
            <mxPoint x="493" y="99" as="targetPoint" />
          </mxGeometry>
        </mxCell>
        <mxCell id="4amq0cf6v7Hj1Vuj9f3A-26" value="" style="endArrow=none;html=1;rounded=0;" parent="1" source="4amq0cf6v7Hj1Vuj9f3A-5" target="gpAHWMkQ7fagHkn4sIOI-18" edge="1">
          <mxGeometry width="50" height="50" relative="1" as="geometry">
            <mxPoint x="-405" y="403" as="sourcePoint" />
            <mxPoint x="50" y="919" as="targetPoint" />
          </mxGeometry>
        </mxCell>
        <mxCell id="4amq0cf6v7Hj1Vuj9f3A-27" value="" style="endArrow=none;html=1;rounded=0;" parent="1" source="4amq0cf6v7Hj1Vuj9f3A-5" target="gpAHWMkQ7fagHkn4sIOI-22" edge="1">
          <mxGeometry width="50" height="50" relative="1" as="geometry">
            <mxPoint x="-302" y="799" as="sourcePoint" />
            <mxPoint x="217" y="586" as="targetPoint" />
          </mxGeometry>
        </mxCell>
        <mxCell id="4amq0cf6v7Hj1Vuj9f3A-28" value="" style="endArrow=block;endSize=16;endFill=0;html=1;rounded=0;" parent="1" source="4amq0cf6v7Hj1Vuj9f3A-9" target="oT49b-B8dAcFB7KdIcNo-45" edge="1">
          <mxGeometry width="160" relative="1" as="geometry">
            <mxPoint x="1203" y="10" as="sourcePoint" />
            <mxPoint x="1424" y="-250" as="targetPoint" />
          </mxGeometry>
        </mxCell>
        <mxCell id="4amq0cf6v7Hj1Vuj9f3A-29" value="" style="endArrow=block;endSize=16;endFill=0;html=1;rounded=0;" parent="1" source="4amq0cf6v7Hj1Vuj9f3A-13" target="oT49b-B8dAcFB7KdIcNo-45" edge="1">
          <mxGeometry width="160" relative="1" as="geometry">
            <mxPoint x="-883" y="-289" as="sourcePoint" />
            <mxPoint x="-520" y="-148" as="targetPoint" />
          </mxGeometry>
        </mxCell>
        <mxCell id="4amq0cf6v7Hj1Vuj9f3A-30" value="" style="endArrow=none;html=1;rounded=0;" parent="1" source="oT49b-B8dAcFB7KdIcNo-45" target="gpAHWMkQ7fagHkn4sIOI-22" edge="1">
          <mxGeometry width="50" height="50" relative="1" as="geometry">
            <mxPoint x="-248" y="9" as="sourcePoint" />
            <mxPoint x="496" y="577" as="targetPoint" />
          </mxGeometry>
        </mxCell>
        <mxCell id="4amq0cf6v7Hj1Vuj9f3A-32" value="" style="endArrow=none;html=1;rounded=0;" parent="1" source="4amq0cf6v7Hj1Vuj9f3A-13" target="gpAHWMkQ7fagHkn4sIOI-18" edge="1">
          <mxGeometry width="50" height="50" relative="1" as="geometry">
            <mxPoint x="-1020" y="64" as="sourcePoint" />
            <mxPoint x="170" y="576" as="targetPoint" />
          </mxGeometry>
        </mxCell>
        <mxCell id="4amq0cf6v7Hj1Vuj9f3A-33" value="" style="endArrow=none;html=1;rounded=0;" parent="1" source="4amq0cf6v7Hj1Vuj9f3A-13" target="gpAHWMkQ7fagHkn4sIOI-22" edge="1">
          <mxGeometry width="50" height="50" relative="1" as="geometry">
            <mxPoint x="-1020" y="64" as="sourcePoint" />
            <mxPoint x="170" y="576" as="targetPoint" />
          </mxGeometry>
        </mxCell>
        <mxCell id="4amq0cf6v7Hj1Vuj9f3A-34" value="" style="endArrow=none;html=1;rounded=0;" parent="1" source="4amq0cf6v7Hj1Vuj9f3A-9" target="gpAHWMkQ7fagHkn4sIOI-18" edge="1">
          <mxGeometry width="50" height="50" relative="1" as="geometry">
            <mxPoint x="-1010" y="74" as="sourcePoint" />
            <mxPoint x="180" y="586" as="targetPoint" />
          </mxGeometry>
        </mxCell>
        <mxCell id="4amq0cf6v7Hj1Vuj9f3A-35" value="" style="endArrow=none;html=1;rounded=0;" parent="1" source="4amq0cf6v7Hj1Vuj9f3A-9" target="gpAHWMkQ7fagHkn4sIOI-22" edge="1">
          <mxGeometry width="50" height="50" relative="1" as="geometry">
            <mxPoint x="-1000" y="84" as="sourcePoint" />
            <mxPoint x="190" y="596" as="targetPoint" />
          </mxGeometry>
        </mxCell>
        <mxCell id="8QEylS4FPjr_UHjatzHV-1" value="DSHangSX" style="swimlane;fontStyle=1;align=center;verticalAlign=top;childLayout=stackLayout;horizontal=1;startSize=26;horizontalStack=0;resizeParent=1;resizeParentMax=0;resizeLast=0;collapsible=1;marginBottom=0;whiteSpace=wrap;html=1;" parent="1" vertex="1">
          <mxGeometry x="570" y="-650" width="160" height="172" as="geometry" />
        </mxCell>
        <mxCell id="8QEylS4FPjr_UHjatzHV-2" value="&lt;u&gt;- mahsx: int&lt;/u&gt;" style="text;strokeColor=none;fillColor=none;align=left;verticalAlign=top;spacingLeft=4;spacingRight=4;overflow=hidden;rotatable=0;points=[[0,0.5],[1,0.5]];portConstraint=eastwest;whiteSpace=wrap;html=1;" parent="8QEylS4FPjr_UHjatzHV-1" vertex="1">
          <mxGeometry y="26" width="160" height="26" as="geometry" />
        </mxCell>
        <mxCell id="8QEylS4FPjr_UHjatzHV-3" value="" style="line;strokeWidth=1;fillColor=none;align=left;verticalAlign=middle;spacingTop=-1;spacingLeft=3;spacingRight=3;rotatable=0;labelPosition=right;points=[];portConstraint=eastwest;strokeColor=inherit;" parent="8QEylS4FPjr_UHjatzHV-1" vertex="1">
          <mxGeometry y="52" width="160" height="8" as="geometry" />
        </mxCell>
        <mxCell id="8QEylS4FPjr_UHjatzHV-4" value="+ xemDSHangSX()&lt;br&gt;+ themHangSX()&lt;br&gt;+ suaHangSX()&lt;br&gt;+ xoaHangSX()&lt;br&gt;+ timkiemHangSX()&lt;br&gt;+ GhiFile()&lt;br&gt;+ DocFile()&lt;div&gt;&lt;br/&gt;&lt;/div&gt;" style="text;strokeColor=none;fillColor=none;align=left;verticalAlign=top;spacingLeft=4;spacingRight=4;overflow=hidden;rotatable=0;points=[[0,0.5],[1,0.5]];portConstraint=eastwest;whiteSpace=wrap;html=1;" parent="8QEylS4FPjr_UHjatzHV-1" vertex="1">
          <mxGeometry y="60" width="160" height="112" as="geometry" />
        </mxCell>
        <mxCell id="8QEylS4FPjr_UHjatzHV-6" value="" style="endArrow=diamondThin;endFill=0;endSize=24;html=1;rounded=0;" parent="1" source="4amq0cf6v7Hj1Vuj9f3A-17" target="oT49b-B8dAcFB7KdIcNo-53" edge="1">
          <mxGeometry width="160" relative="1" as="geometry">
            <mxPoint x="308" y="-400" as="sourcePoint" />
            <mxPoint x="468" y="-400" as="targetPoint" />
          </mxGeometry>
        </mxCell>
        <mxCell id="HMkTZYZH4a2gDAR9DqJe-1" value="ChiTietHoaDon" style="swimlane;fontStyle=1;align=center;verticalAlign=top;childLayout=stackLayout;horizontal=1;startSize=26;horizontalStack=0;resizeParent=1;resizeParentMax=0;resizeLast=0;collapsible=1;marginBottom=0;whiteSpace=wrap;html=1;" parent="1" vertex="1">
          <mxGeometry x="1123" y="-644" width="817" height="187" as="geometry" />
        </mxCell>
        <mxCell id="HMkTZYZH4a2gDAR9DqJe-2" value="- xeMay: XeMay&lt;br&gt;- soluongmua: int" style="text;strokeColor=none;fillColor=none;align=left;verticalAlign=top;spacingLeft=4;spacingRight=4;overflow=hidden;rotatable=0;points=[[0,0.5],[1,0.5]];portConstraint=eastwest;whiteSpace=wrap;html=1;" parent="HMkTZYZH4a2gDAR9DqJe-1" vertex="1">
          <mxGeometry y="26" width="817" height="43" as="geometry" />
        </mxCell>
        <mxCell id="HMkTZYZH4a2gDAR9DqJe-3" value="" style="line;strokeWidth=1;fillColor=none;align=left;verticalAlign=middle;spacingTop=-1;spacingLeft=3;spacingRight=3;rotatable=0;labelPosition=right;points=[];portConstraint=eastwest;strokeColor=inherit;" parent="HMkTZYZH4a2gDAR9DqJe-1" vertex="1">
          <mxGeometry y="69" width="817" height="8" as="geometry" />
        </mxCell>
        <mxCell id="HMkTZYZH4a2gDAR9DqJe-4" value="+&amp;nbsp;ChiTietHoaDon()&lt;br&gt;+&amp;nbsp;&lt;span style=&quot;background-color: initial;&quot;&gt;ChiTietHoaDon(SanPham sanPham, int soluongmua, int masp, int soluongnhaphang, String tensp, String loaisp,&amp;nbsp;&lt;/span&gt;&lt;span style=&quot;background-color: initial;&quot;&gt;double tiennhaphang, double giasp)&lt;/span&gt;&lt;div&gt;&lt;span style=&quot;background-color: initial;&quot;&gt;+ getXemay(): XeMay&lt;br&gt;+ setXemay(XeMay xeMay)&lt;br&gt;&lt;/span&gt;+ getSoluongmua(): int&lt;br&gt;+ setSoluongmua(int soluongmua)&lt;br&gt;+ String toString()&lt;/div&gt;" style="text;strokeColor=none;fillColor=none;align=left;verticalAlign=top;spacingLeft=4;spacingRight=4;overflow=hidden;rotatable=0;points=[[0,0.5],[1,0.5]];portConstraint=eastwest;whiteSpace=wrap;html=1;" parent="HMkTZYZH4a2gDAR9DqJe-1" vertex="1">
          <mxGeometry y="77" width="817" height="110" as="geometry" />
        </mxCell>
        <mxCell id="HMkTZYZH4a2gDAR9DqJe-7" value="" style="endArrow=diamondThin;endFill=1;endSize=24;html=1;rounded=0;" parent="1" source="HMkTZYZH4a2gDAR9DqJe-1" target="oT49b-B8dAcFB7KdIcNo-53" edge="1">
          <mxGeometry width="160" relative="1" as="geometry">
            <mxPoint x="927" y="422" as="sourcePoint" />
            <mxPoint x="1087" y="422" as="targetPoint" />
          </mxGeometry>
        </mxCell>
        <mxCell id="HMkTZYZH4a2gDAR9DqJe-8" value="" style="endArrow=diamondThin;endFill=0;endSize=24;html=1;rounded=0;" parent="1" source="HMkTZYZH4a2gDAR9DqJe-1" target="oT49b-B8dAcFB7KdIcNo-25" edge="1">
          <mxGeometry width="160" relative="1" as="geometry">
            <mxPoint x="866" y="309" as="sourcePoint" />
            <mxPoint x="1026" y="309" as="targetPoint" />
          </mxGeometry>
        </mxCell>
      </root>
    </mxGraphModel>
  </diagram>
</mxfile>
